<svg xmlns="http://www.w3.org/2000/svg" viewBox="0 0 800 800"><path d="M785.37 200.62 599.38 14.63c-19.5-19.51-51.13-19.51-70.63 0L419.11 124.27v.01L29.28 514.1a49.596 49.596 0 0 0-14.63 35.32v186c.03 27.57 22.37 49.92 49.95 49.95h199.79c4.42 0 8.65-1.75 11.77-4.88l399.57-399.57 109.65-109.65c19.47-19.52 19.47-51.12 0-70.64ZM257.49 752.06H64.6c-9.19-.01-16.64-7.46-16.65-16.65v-186c-.01-4.42 1.74-8.66 4.88-11.77l378.04-378.05 209.54 209.54-382.92 382.92Zm504.34-504.35-97.87 97.87-209.54-209.54 97.87-97.87c6.5-6.5 17.04-6.5 23.54 0l186 185.99c6.49 6.51 6.49 17.04 0 23.54Z" style="fill:#004a46"/></svg>