<svg xmlns="http://www.w3.org/2000/svg" viewBox="0 0 800 800"><path d="M409.75 158.71c-117.45 0-213 95.55-213 213 0 48.12 15.76 93.57 45.59 131.4 5.72 7.25 11.87 14.4 17.82 21.3 17.77 20.62 34.55 40.09 40.52 62 .13.47 1.25 5.07 1.09 20.73l-.03 2.26c-.18 12.71-.42 30.11 12.45 43.17 8.81 8.94 21.16 13.29 37.77 13.29h115.19c17.93 0 30.82-4.39 39.4-13.41 11.62-12.21 10.84-27.97 10.32-38.41-.09-1.84-.19-3.71-.21-5.56-.19-15.67.99-20.09 1.04-20.28 6.07-21.9 25.72-45 43.07-65.37 5.79-6.8 11.25-13.22 16.34-19.68 29.84-37.84 45.61-83.29 45.61-131.44 0-117.45-95.53-213-212.97-213Zm133.67 317.87c-4.6 5.82-9.81 11.95-15.33 18.44-20.22 23.76-43.15 50.69-51.74 81.73-1.23 4.42-2.83 12.57-2.59 32.25.03 2.39.14 4.79.26 7.17.09 1.88.21 4.36.2 6.32-1.51.25-3.79.47-7.08.47H351.95c-3.65 0-5.78-.39-6.88-.68-.57-2.79-.49-8.6-.43-12.26l.03-2.41c.21-19.79-1.38-28-2.59-32.46-8.52-31.28-30.25-56.49-49.41-78.73-5.91-6.86-11.5-13.34-16.63-19.86-23.8-30.2-36.38-66.45-36.38-104.84 0-93.79 76.3-170.09 170.09-170.09s170.06 76.3 170.06 170.09c0 38.41-12.59 74.68-36.4 104.87Zm-80.71 208.67H356.76c-22.87 0-41.48 18.61-41.48 41.48v31.8c0 22.87 18.61 41.48 41.48 41.48h105.95c22.87 0 41.48-18.61 41.48-41.48v-31.8c0-22.87-18.61-41.48-41.48-41.48Zm-1.43 71.84H358.19v-28.94h103.09v28.94Zm-51.54-626.14c11.85 0 21.45-9.6 21.45-21.45V21.45C431.19 9.6 421.59 0 409.74 0s-21.45 9.6-21.45 21.45v88.04c0 11.85 9.61 21.45 21.45 21.45Zm282.24-31.99c-8.18-8.57-21.76-8.88-30.33-.71l-65.13 62.16c-8.57 8.18-8.89 21.76-.71 30.33 4.22 4.42 9.86 6.64 15.52 6.64 5.32 0 10.65-1.97 14.81-5.93l65.13-62.16c8.57-8.18 8.89-21.76.71-30.33Zm63.94 214.54h-.03l-83.84.13c-11.85.02-21.44 9.64-21.42 21.49.02 11.84 9.62 21.42 21.45 21.42h.03l83.84-.13c11.85-.02 21.44-9.64 21.42-21.49-.02-11.84-9.62-21.42-21.45-21.42ZM212.77 185.02c8.18-8.57 7.86-22.15-.71-30.33l-65.13-62.16c-8.56-8.17-22.15-7.86-30.33.71s-7.86 22.15.71 30.33l65.13 62.16c4.15 3.96 9.48 5.93 14.81 5.93a21.4 21.4 0 0 0 15.52-6.64Zm-84.83 128.61-83.84-.13h-.03c-11.83 0-21.43 9.59-21.45 21.42-.02 11.85 9.57 21.47 21.42 21.49l83.84.13h.03c11.83 0 21.43-9.59 21.45-21.42.02-11.85-9.57-21.47-21.42-21.49Z" style="fill:#004a46"/></svg>