<svg xmlns="http://www.w3.org/2000/svg" viewBox="0 0 512 512"><path d="M9.84 311.15c-10.9-33.32 2.59-72.75 34.56-89.38 44.1-22.95 96.19-34.14 137.64-63s73.47-73.82 100.99-116.13c5.55-6.47 15.58-7.42 20.66.12l38.17 88.05c51.01-9.26 86.36 53.85 52.65 93.21-1.98 2.31-10.06 8.88-9.95 10.45l35.92 85.66c1.49 7.64-1.01 13.91-8.88 16.09-6.36 1.77-20.27-6.99-27.43-9.54-63.44-22.59-136.33-5.2-195.35 23.08l91.27 91.72c11.17 13.6-6.31 29.15-18.32 16.84l-97.89-97.95c-27.45 9.78-52.48 27.59-82.72 24.02-24.89-2.94-46.26-18.74-57.74-40.99L9.85 311.14Zm375.35-10.37L290.96 76.79c-27.1 37.68-55.97 75.4-94.52 102.35-22.43 15.68-46.5 25.88-71.86 35.99l48.09 114.3c25.17-10.75 49.67-21.7 76.2-28.63 44.6-11.65 91.99-12.65 136.32-.03Zm-283.65-75.95L54.07 244.8c-11.81 4.97-22.29 25.49-23.16 37.9-1.38 19.8 15.55 57.8 32.12 69.34 9.48 6.6 30.24 10.8 40.97 6.28l45.63-19.2-48.09-114.3Zm272.18-15.78c20.13-18.81 4.77-54.84-22.49-53.46l22.49 53.46Zm114.26-81.7 1.16 2.77c.24 5.24.17 10.46-4.56 13.79l-54.83 22.3c-14.66-4.39-15.63-18.4-1.85-25.56 10.11-5.26 33.5-15.45 44.15-18.25 6.97-1.83 10.96.29 15.93 4.95Zm-52.41 59.18c2.43-1.56 3.95-1.89 6.7-2.32 7.29-1.16 47.96-2.02 54.5-.71 13.72 2.76 13.79 21.2-.07 24.55-4.68 1.13-51.25 1.87-56.12.89-10.78-2.16-14.28-16.46-5.01-22.41Zm-39.21-76.69c.52-1.33 2.23-3.24 3.23-4.41 10.96-12.94 26.58-24.45 38.12-37.14 12.51-8.04 24.96 4.7 17.87 17.21l-41.79 40.3c-9.94 5.26-21.49-5.54-17.42-15.95Z" style="fill:#004a46"/></svg>